<?xml version="1.0" encoding="utf-8"?>
<!-- Generator: Adobe Illustrator 19.2.1, SVG Export Plug-In . SVG Version: 6.00 Build 0)  -->
<svg version="1.2" baseProfile="tiny" id="Layer_1" xmlns="http://www.w3.org/2000/svg" xmlns:xlink="http://www.w3.org/1999/xlink"
	 x="0px" y="0px" viewBox="0 0 55.2 55.2" xml:space="preserve">
<g>
	<circle fill="none" stroke="#000000" stroke-miterlimit="10" cx="22.7" cy="34.3" r="20.4"/>
	<path fill="none" stroke="#000000" stroke-linecap="round" stroke-linejoin="round" stroke-miterlimit="10" d="M31.5,0.5
		C40.7,2.9,48.4,8.9,53,16.9"/>
	<path fill="none" stroke="#000000" stroke-linecap="round" stroke-linejoin="round" stroke-miterlimit="10" d="M31.3,5.5
		c7,2,12.9,6.7,16.4,12.9"/>
	<path fill="none" stroke="#000000" stroke-linecap="round" stroke-linejoin="round" stroke-miterlimit="10" d="M32,10.9
		c4.5,1.8,8.3,5,10.9,9.1"/>
	<circle fill="none" stroke="#000000" stroke-miterlimit="10" cx="22.7" cy="34.3" r="5.1"/>
</g>
<path fill="none" stroke="#000000" stroke-miterlimit="10" d="M10.6,34.3c0-0.6,0.5-1.1,1.1-1.1c0.6,0,1.1,0.5,1.1,1.1
	c0,0.6-0.5,1.1-1.1,1.1C11.1,35.4,10.6,34.9,10.6,34.3"/>
<path fill="none" stroke="#000000" stroke-miterlimit="10" d="M21.5,23.4c0-0.6,0.5-1.1,1.1-1.1c0.6,0,1.1,0.5,1.1,1.1
	c0,0.6-0.5,1.1-1.1,1.1C22,24.6,21.5,24.1,21.5,23.4"/>
<path fill="none" stroke="#000000" stroke-miterlimit="10" d="M14.5,27.3c0-0.6,0.5-1.1,1.1-1.1c0.6,0,1.1,0.5,1.1,1.1
	c0,0.6-0.5,1.1-1.1,1.1C15,28.4,14.5,27.9,14.5,27.3"/>
</svg>
