<?xml version="1.0" encoding="utf-8"?>
<!-- Generator: Adobe Illustrator 19.2.1, SVG Export Plug-In . SVG Version: 6.00 Build 0)  -->
<svg version="1.2" baseProfile="tiny" id="Layer_1" xmlns="http://www.w3.org/2000/svg" xmlns:xlink="http://www.w3.org/1999/xlink"
	 x="0px" y="0px" viewBox="0 0 55.1 55.1" xml:space="preserve">
<path fill="none" stroke="#010202" stroke-miterlimit="10" d="M27.5,0.5C27,0.5,15,0.5,9.3,1.7v1.7c0,0,0.6,0.5,1.5,0.7
	c0,0,0.1,13.5,1.8,18.9c1.8,5.5,2.5,5.7,3.9,7c1.3,1.3,2.9,2.8,2.9,5.7c0,2.9,0,11.8,0,11.8l3.3,2.7h0.4v2h-1v2.2h3.7v-2.2H25v-2.1
	h2.5h0H30v2.1h-0.8v2.2h3.7v-2.2h-1v-2h0.4l3.3-2.7c0,0,0-8.9,0-11.8c0-2.9,1.5-4.4,2.9-5.7c1.3-1.3,2.1-1.6,3.9-7
	c1.8-5.5,1.8-18.9,1.8-18.9c1-0.2,1.5-0.7,1.5-0.7V1.7C40.1,0.5,28.1,0.5,27.5,0.5z"/>
</svg>
