<?xml version="1.0" encoding="utf-8"?>
<!-- Generator: Adobe Illustrator 19.2.1, SVG Export Plug-In . SVG Version: 6.00 Build 0)  -->
<svg version="1.2" baseProfile="tiny" id="Layer_1" xmlns="http://www.w3.org/2000/svg" xmlns:xlink="http://www.w3.org/1999/xlink"
	 x="0px" y="0px" viewBox="0 0 56 56" xml:space="preserve">
<path fill="none" stroke="#000000" stroke-miterlimit="10" d="M9.2,18.3c0,0-8.6,0-8.6,8.6v19.1c0,0,0,8.6,8.6,8.6h19.1
	c0,0,8.6,0,8.6-8.6V27c0,0,0-8.6-8.6-8.6H9.2z"/>
<circle fill="none" stroke="#000000" stroke-miterlimit="10" cx="18.7" cy="36.5" r="6.2"/>
<path fill="none" stroke="#000000" stroke-linecap="round" stroke-miterlimit="10" d="M54.7,20.7C54,9.8,45.2,1,34.3,0.5"/>
<path fill="none" stroke="#000000" stroke-linecap="round" stroke-miterlimit="10" d="M49,20.7c-0.6-7.8-6.9-14-14.7-14.5"/>
<path fill="none" stroke="#000000" stroke-linecap="round" stroke-miterlimit="10" d="M43.4,20.7c-0.6-4.7-4.4-8.4-9.1-8.9"/>
<path fill="none" stroke="#000000" stroke-miterlimit="10" d="M17.6,23.9c0-0.6,0.5-1.1,1.1-1.1c0.6,0,1.1,0.5,1.1,1.1
	c0,0.6-0.5,1.1-1.1,1.1C18.1,25.1,17.6,24.6,17.6,23.9"/>
<path fill="none" stroke="#000000" stroke-miterlimit="10" d="M10.8,23.9c0-0.6,0.5-1.1,1.1-1.1c0.6,0,1.1,0.5,1.1,1.1
	c0,0.6-0.5,1.1-1.1,1.1C11.3,25.1,10.8,24.6,10.8,23.9"/>
<path fill="none" stroke="#000000" stroke-miterlimit="10" d="M24.4,23.9c0-0.6,0.5-1.1,1.1-1.1c0.6,0,1.1,0.5,1.1,1.1
	c0,0.6-0.5,1.1-1.1,1.1C24.9,25.1,24.4,24.6,24.4,23.9"/>
</svg>
